<svg width="300" height="180" viewBox="0 0 300 180" fill="none" xmlns="http://www.w3.org/2000/svg">
<g clip-path="url(#clip0_217_2)">
<rect width="300" height="180" fill="#1F2937"/>
<path d="M45.6875 142.188C41.3958 142.188 36.1875 140.792 30.0625 138C23.9792 135.208 19.3333 130.479 16.125 123.812C12.9167 117.104 11.3125 109.875 11.3125 102.125C11.3125 98.1667 11.8958 92.9375 13.0625 86.4375L15.0625 74.875C15.3542 72.9167 15.6667 71 16 69.125C16.5 66.25 16.9375 63.4792 17.3125 60.8125C17.8958 56.2292 18.9167 52.7917 20.375 50.5C21.8333 48.1667 24.0833 47 27.125 47C28.625 47 30.1458 48.1875 31.6875 50.5625C33.2708 52.8958 34.0625 54.6875 34.0625 55.9375C34.0625 56.8125 33.0625 61.3958 31.0625 69.6875C30.5625 71.7708 29.6875 76.875 28.4375 85C27.2292 93.0833 26.625 98.5625 26.625 101.438C26.625 112.062 28.9375 119.229 33.5625 122.938C38.2292 126.646 42.1667 128.5 45.375 128.5C55.9583 128.5 63.2708 126.25 67.3125 121.75C71.3542 117.208 73.9375 109.812 75.0625 99.5625C75.2708 97.6875 75.5208 95.9167 75.8125 94.25C76.2292 90 76.5833 85.9375 76.875 82.0625C77.875 67.3542 79.3125 58.1458 81.1875 54.4375C83.1042 50.7292 85.8125 48.875 89.3125 48.875C93.6458 48.875 95.8125 51.6875 95.8125 57.3125C95.8125 60.6458 95 66.8542 93.375 75.9375C92.4167 81.3958 91.7708 86.75 91.4375 92C90.6875 104.625 88.9583 113.875 86.25 119.75C83.5417 125.625 78.625 130.833 71.5 135.375C64.4167 139.917 55.8125 142.188 45.6875 142.188Z" fill="white"/>
<path d="M172.812 45.125C172.812 48.0833 171.479 50.6875 168.812 52.9375C166.146 55.1458 163.833 56.25 161.875 56.25C159.375 56.25 157.146 55.2083 155.188 53.125C153.271 51.0417 152.312 48.9583 152.312 46.875C152.312 43.875 153.271 41.4583 155.188 39.625C157.104 37.75 159.854 36.8125 163.438 36.8125C166.229 36.8125 168.479 37.6458 170.188 39.3125C171.938 40.9375 172.812 42.875 172.812 45.125ZM142.625 96.5V96.5625C143.958 88.9792 144.625 84.6458 144.625 83.5625C144.625 80.4792 145.292 77.8958 146.625 75.8125C148 73.7292 149.896 72.6875 152.312 72.6875C155.146 72.6875 157.354 73.3542 158.938 74.6875C160.521 76.0208 161.312 77.5208 161.312 79.1875C161.312 80.8542 160.542 84.2917 159 89.5L158.625 90.875C156.333 98.9167 154.958 105.479 154.5 110.562C154.042 115.646 153.812 119.75 153.812 122.875C153.812 125.417 154.25 128.812 155.125 133.062C155.25 133.812 155.312 134.438 155.312 134.938C155.312 135.896 154.396 137.188 152.562 138.812C150.771 140.438 148.833 141.25 146.75 141.25C141.25 141.25 138.5 137.083 138.5 128.75C138.5 121.667 139.5 113.042 141.5 102.875C141.917 100.625 142.292 98.5 142.625 96.5Z" fill="white"/>
<path d="M209.25 127.938C209.708 125.896 210.062 122.229 210.312 116.938C211.271 102.438 213.062 87.2708 215.688 71.4375C216.354 68.1042 216.688 65.5625 216.688 63.8125C216.688 63.0625 216.354 62.6042 215.688 62.4375C211.271 61.3125 209.062 59.375 209.062 56.625C209.062 54.625 209.958 52.75 211.75 51C213.583 49.2083 215.521 48.3125 217.562 48.3125L226 48.5625C229.833 48.5625 235.104 48.2917 241.812 47.75C247.521 47.25 252.167 47 255.75 47C267.375 47 276.771 50.2708 283.938 56.8125C291.146 63.3125 294.75 71.9375 294.75 82.6875C294.75 94.6875 289.208 105.542 278.125 115.25C267.042 124.917 253.625 131.521 237.875 135.062C233.708 135.979 230.771 136.771 229.062 137.438C227.354 138.104 225.354 139.167 223.062 140.625C220.229 142.583 217.438 143.562 214.688 143.562C212.562 143.562 210.667 142.542 209 140.5C207.333 138.458 206.5 136.792 206.5 135.5C206.5 134.625 206.938 133.354 207.812 131.688L209.25 127.938ZM225.562 124.812C227.771 124.812 234.083 123.208 244.5 120C254.958 116.75 263.438 111.771 269.938 105.062C276.438 98.3542 279.688 90.7083 279.688 82.125C279.688 75.25 277.271 69.7917 272.438 65.75C267.646 61.6667 261.354 59.625 253.562 59.625C248.229 59.625 241.812 60.125 234.312 61.125C233.354 61.25 232.583 61.3333 232 61.375C227.458 89.2083 225.188 108.854 225.188 120.312C225.188 122.438 225.312 123.938 225.562 124.812Z" fill="#3F7FED"/>
</g>
<defs>
<clipPath id="clip0_217_2">
<rect width="300" height="180" fill="white"/>
</clipPath>
</defs>
</svg>
